<?xml version="1.0" encoding="utf-8"?>
<!-- Generator: Adobe Illustrator 26.5.0, SVG Export Plug-In . SVG Version: 6.00 Build 0)  -->
<svg version="1.1" id="MasterLayer_1" xmlns="http://www.w3.org/2000/svg" xmlns:xlink="http://www.w3.org/1999/xlink" x="0px"
	 y="0px" viewBox="0 0 1920 1080" style="enable-background:new 0 0 1920 1080;" xml:space="preserve">
<style type="text/css">
	.st0{fill:#F3F9FE;stroke:#F3F9FE;stroke-miterlimit:10;}
</style>
<path class="st0" d="M0,325.2c0,0,113.5,169.5,150.3,55.1s234.9-261.5,234.9-261.5S503.6-4.5,372.9,0S0-0.1,0-0.1V315"/>
<path class="st0" d="M857-73.1C816,8,820,133.5,877.4,219c86.9,129.4,236.6,78.3,306.4,192c85.1,138.6-88.2,294-6.1,422.8
	c75,117.6,316.1,139.6,396.3,53.1c61.9-66.8,15.7-185.1,85.8-220.6c4-2,8.2-3.7,12.5-5c28.8-8.9,64.9-4,83.5,15.3
	c36.7,38,363.3-470.9,65.4-782.3C1548.9-390.3,972.1-301.1,857-73.1z"/>
<path class="st0" d="M1920,395.1"/>
<path class="st0" d="M829.8,0l1091.5-0.1l-1.2,395.3c0,0,2.7,737.9,0,605.1s-311.2-196.3-311.2-196.3"/>
<polygon class="st0" points="1605.7,804.2 1690.8,815 1555.1,865.4 "/>
<path class="st0" d="M1588.3,867.5c0,0,123.3-44.2,188.7-9.3c65.4,34.9,143,15.4,143,15.4l1.2-873.7"/>
</svg>
